<svg xmlns="http://www.w3.org/2000/svg" version="1.1" xmlns:xlink="http://www.w3.org/1999/xlink" xmlns:svgjs="http://svgjs.dev/svgjs" width="1500" height="1500" viewBox="0 0 1500 1500"><rect width="1500" height="1500" fill="#ffffff"></rect><g transform="matrix(0.6666666666666666,0,0,0.6666666666666666,249.2923424148663,266.1114709835612)"><svg viewBox="0 0 257 248" data-background-color="#010536" preserveAspectRatio="xMidYMid meet" height="1447" width="1500" xmlns="http://www.w3.org/2000/svg" xmlns:xlink="http://www.w3.org/1999/xlink"><g id="tight-bounds" transform="matrix(1,0,0,1,0.1818679993793637,0.40002634420793015)"><svg viewBox="0 0 256.6360386928105 247.2" height="247.2" width="256.6360386928105"><g><svg viewBox="0 0 256.6360386928105 247.2" height="247.2" width="256.6360386928105"><g><svg viewBox="0 0 256.6360386928105 247.2" height="247.2" width="256.6360386928105"><g id="textblocktransform"><svg viewBox="0 0 256.6360386928105 247.2" height="247.2" width="256.6360386928105" id="textblock"><g><svg viewBox="0 0 256.6360386928105 247.2" height="247.2" width="256.6360386928105"><path d="M256.035 53.02C254.829 27.36 251.39 20.227 251.39 20.227 240.833-6.202 227.658-0.506 215.823 3.292 194.926 3.446 174.114 9.091 153.265 12.119 109.506 12.581 65.372 4.986 21.829 23.717 17.739 29.464-4.243 24.846 0.728 56.304 2.031 69.39 6.784 83.913 6.639 95.922 7.291 98.026 8.196 93.202 8.582 96.23 9.933 104.39 12.141 100.541 13.951 105.365 11.429 118.246 13.239 128.971 14.964 140.21 11.924 143.135 8.027 141.749 6.277 151.449 6.096 158.479 5.119 157.145 4.045 156.837 3.261 156.632 1.681 157.402 1.946 159.608 2.851 167.152-1.034 171.514 1.403 178.904-0.274 186.91 2.561 193.838 2.175 202.511 2.127 204.255 2.392 205.744 2.815 206.154 4.685 208.361 1.958 212.672 2.248 217.342 21.431 249.262 42.243 227.195 61.897 241.872 67.001 231.608 63.164 245.516 65.203 243.36 66.796 240.846 67.954 251.263 69.751 245.362 70.029 243.668 69.607 239.665 70.596 240.435 71.115 240.846 71.573 240.743 71.646 238.382 71.754 234.841 70.801 237.048 70.548 235.201 73.286 225.861 72.611 248.081 75.181 247.158 75.06 244.438 74.312 240.538 75.844 241.051 77.364 237.151 77.413 233.918 78.764 242.693 78.812 244.592 79.054 245.926 79.44 246.85 83.662 237.305 87.861 250.237 92.289 245.926 95.004 241.205 97.61 248.492 100.36 246.696 101.326 245.259 102.303 242.693 103.232 247.004 114.609 247.928 126.734 244.079 137.521 247.158 166.344 241.41 197.146 249.518 227.538 241.923 234.704 238.998 242.148 234.841 249.134 231.506 249.134 231.506 254.793 222.371 254.793 181.316S255.999 145.393 256.18 112.703C256.361 80.013 257.206 78.679 255.999 53.02Z" opacity="1" fill="#000000" data-fill-palette-color="tertiary"></path><g transform="matrix(1,0,0,1,55.76832,26.230666666666668)"><svg width="145.09939869281047" viewBox="2.6 -32.55 24.7 33.15" height="194.73866666666666" data-palette-color="#010536"><path d="M14.95 0.6L14.95 0.6Q8.9 0.6 5.75-2.74 2.6-6.08 2.6-12.3L2.6-12.3 2.6-19.68Q2.6-25.88 5.75-29.21 8.9-32.55 14.95-32.55L14.95-32.55Q21-32.55 24.15-29.21 27.3-25.88 27.3-19.68L27.3-19.68 27.3-12.3Q27.3-6.08 24.15-2.74 21 0.6 14.95 0.6ZM14.95-2.88L14.95-2.88Q19-2.88 21.05-5.29 23.1-7.7 23.1-12.13L23.1-12.13 23.1-19.85Q23.1-24.28 21.05-26.68 19-29.08 14.95-29.08L14.95-29.08Q10.93-29.08 8.88-26.68 6.83-24.28 6.83-19.85L6.83-19.85 6.83-12.13Q6.83-7.7 8.88-5.29 10.93-2.88 14.95-2.88Z" opacity="1" transform="matrix(1,0,0,1,0,0)" fill="#ffffff" class="wordmark-text-0" data-fill-palette-color="quaternary" id="text-0"></path></svg></g></svg></g></svg></g></svg></g><g></g></svg></g><defs></defs></svg><rect width="256.6360386928105" height="247.2" fill="none" stroke="none" visibility="hidden"></rect></g></svg></g></svg>