<?xml version="1.0" encoding="utf-8"?>
<!-- Generator: Adobe Illustrator 24.2.3, SVG Export Plug-In . SVG Version: 6.00 Build 0)  -->
<svg version="1.1" id="Layer_1" xmlns="http://www.w3.org/2000/svg" xmlns:xlink="http://www.w3.org/1999/xlink" x="0px" y="0px"
	 viewBox="0 0 129.1 122.9" style="enable-background:new 0 0 129.1 122.9;" xml:space="preserve">
<style type="text/css">
	.st0{fill:none;stroke:#FCFCFC;stroke-width:0.65;stroke-miterlimit:10;}
	.st1{fill:#FCFCFC;}
</style>
<path class="st0" d="M128,116.1L128,116.1L71.2,2.2c-0.3-0.8-1.2-1.1-2-0.8c-0.3,0.2-0.6,0.4-0.8,0.8L10.8,115.6l-0.3,0.5l-0.8,1.5
	l40-47.4c0.5-0.6,1.5-0.7,2.1-0.2c0,0,0.1,0.1,0.1,0.1l16.7,17.7c0.6,0.6,1.5,0.7,2.1,0.1c0,0,0.1-0.1,0.1-0.1l16.8-17.7
	c0.6-0.6,1.5-0.7,2.1-0.1c0.1,0.1,0.1,0.1,0.2,0.2l38.9,47.3L128,116.1z"/>
<path class="st0" d="M120.1,118.7L120.1,118.7L63.4,4.8c-0.3-0.8-1.2-1.1-2-0.8c-0.3,0.2-0.6,0.4-0.8,0.8L2.9,118.2l-0.3,0.5
	l-0.8,1.5l40-47.4c0.5-0.6,1.5-0.7,2.1-0.2c0,0,0.1,0.1,0.1,0.1l16.8,17.7c0.6,0.6,1.5,0.7,2.1,0.1c0,0,0.1-0.1,0.1-0.1l16.8-17.7
	c0.6-0.6,1.5-0.7,2.1-0.1c0.1,0.1,0.1,0.1,0.2,0.2l38.8,47.3L120.1,118.7z"/>
<path class="st1" d="M124.1,114.8L124.1,114.8L67.3,0.9c-0.3-0.8-1.2-1.1-2-0.8c-0.3,0.2-0.6,0.4-0.8,0.8L6.8,114.3l-0.3,0.5
	l-0.8,1.5l40-47.4c0.5-0.6,1.5-0.7,2.1-0.2c0,0,0.1,0.1,0.1,0.1l16.8,17.7c0.6,0.6,1.5,0.7,2.1,0.1c0,0,0.1-0.1,0.1-0.1l16.7-17.7
	c0.6-0.6,1.5-0.6,2.1-0.1c0.1,0.1,0.1,0.1,0.2,0.2l38.8,47.3L124.1,114.8z"/>
</svg>
