<svg xmlns="http://www.w3.org/2000/svg" version="1.1" xmlns:xlink="http://www.w3.org/1999/xlink" xmlns:svgjs="http://svgjs.dev/svgjs" width="1500" height="1500" viewBox="0 0 1500 1500"><g transform="matrix(1,0,0,1,-0.21332335329316265,-0.21332335329350371)"><svg viewBox="0 0 334 334" data-background-color="#ffffff" preserveAspectRatio="xMidYMid meet" height="1500" width="1500" xmlns="http://www.w3.org/2000/svg" xmlns:xlink="http://www.w3.org/1999/xlink"><g id="tight-bounds" transform="matrix(1,0,0,1,0.04749999999998522,0.04750000000001364)"><svg viewBox="0 0 333.90454557049503 333.90454557049503" height="333.90454557049503" width="333.90454557049503"><g><svg></svg></g><g><svg viewBox="0 0 333.90454557049503 333.90454557049503" height="333.90454557049503" width="333.90454557049503"><g><path d="M0 166.952c0-92.205 74.747-166.952 166.952-166.952 92.205 0 166.952 74.747 166.953 166.952 0 92.205-74.747 166.952-166.953 166.953-92.205 0-166.952-74.747-166.952-166.953zM166.952 316.63c82.665 0 149.677-67.013 149.678-149.678 0-82.665-67.013-149.677-149.678-149.677-82.665 0-149.677 67.013-149.677 149.677 0 82.665 67.013 149.677 149.677 149.678z" data-fill-palette-color="tertiary" fill="#915eff" stroke="transparent"></path><ellipse rx="160.27418187383762" ry="160.27418187383762" cx="166.95227278524752" cy="166.95227278524752" fill="#915eff" stroke="transparent" stroke-width="0" fill-opacity="1" data-fill-palette-color="tertiary"></ellipse></g><g transform="matrix(1,0,0,1,95.58736330846348,71.17305217166896)"><svg viewBox="0 0 142.72981895356807 191.55844122715712" height="191.55844122715712" width="142.72981895356807"><g><svg viewBox="0 0 142.72981895356807 191.55844122715712" height="191.55844122715712" width="142.72981895356807"><g><svg viewBox="0 0 142.72981895356807 191.55844122715712" height="191.55844122715712" width="142.72981895356807"><g id="textblocktransform"><svg viewBox="0 0 142.72981895356807 191.55844122715712" height="191.55844122715712" width="142.72981895356807" id="textblock"><g><svg viewBox="0 0 142.72981895356807 191.55844122715712" height="191.55844122715712" width="142.72981895356807"><g transform="matrix(1,0,0,1,0,0)"><svg width="142.72981895356807" viewBox="2.6 -32.55 24.7 33.15" height="191.55844122715712" data-palette-color="#ffffff"><path d="M14.95 0.6L14.95 0.6Q8.9 0.6 5.75-2.74 2.6-6.08 2.6-12.3L2.6-12.3 2.6-19.68Q2.6-25.88 5.75-29.21 8.9-32.55 14.95-32.55L14.95-32.55Q21-32.55 24.15-29.21 27.3-25.88 27.3-19.68L27.3-19.68 27.3-12.3Q27.3-6.08 24.15-2.74 21 0.6 14.95 0.6ZM14.95-2.88L14.95-2.88Q19-2.88 21.05-5.29 23.1-7.7 23.1-12.13L23.1-12.13 23.1-19.85Q23.1-24.28 21.05-26.68 19-29.08 14.95-29.08L14.95-29.08Q10.93-29.08 8.88-26.68 6.83-24.28 6.83-19.85L6.83-19.85 6.83-12.13Q6.83-7.7 8.88-5.29 10.93-2.88 14.95-2.88Z" opacity="1" transform="matrix(1,0,0,1,0,0)" fill="#ffffff" class="wordmark-text-0" data-fill-palette-color="quaternary" id="text-0"></path></svg></g></svg></g></svg></g></svg></g><g></g></svg></g></svg></g></svg></g><defs></defs></svg><rect width="333.90454557049503" height="333.90454557049503" fill="none" stroke="none" visibility="hidden"></rect></g></svg></g></svg>